<?xml version="1.0" encoding="utf-8"?>
<!-- Generator: Adobe Illustrator 20.1.0, SVG Export Plug-In . SVG Version: 6.00 Build 0)  -->
<svg version="1.1" id="图层_1" xmlns="http://www.w3.org/2000/svg" xmlns:xlink="http://www.w3.org/1999/xlink" x="0px" y="0px"
	 viewBox="0 0 181.4 181.4" style="enable-background:new 0 0 181.4 181.4;" xml:space="preserve">
<style type="text/css">
	.st0{fill:#5082C3;}
	.st1{fill:#FFFFFF;}
	.st2{enable-background:new    ;}
</style>
<circle id="circle" class="st0" cx="90.7" cy="90.7" r="90.7"/>
<g id="fog">
	<path class="st1" d="M145.2,115.5H86.3c-1.1,0-2-0.6-2-1.4v-5.5c0-0.7,0.9-1.4,2-1.4h58.8c1.1,0,2,0.6,2,1.4v5.5
		C147.1,114.9,146.2,115.5,145.2,115.5z"/>
	<path class="st1" d="M145.2,134.3H86.3c-1.1,0-2-0.6-2-1.4v-5.5c0-0.7,0.9-1.4,2-1.4h58.8c1.1,0,2,0.6,2,1.4v5.5
		C147.1,133.6,146.2,134.3,145.2,134.3z"/>
	<path class="st1" d="M145.2,154.1H86.3c-1.1,0-2-0.6-2-1.4v-5.5c0-0.7,0.9-1.4,2-1.4h58.8c1.1,0,2,0.6,2,1.4v5.5
		C147.1,153.5,146.2,154.1,145.2,154.1z"/>
</g>
<path class="st1" d="M54.3,103.2l-15.1,26.5c-0.3,0.5-1,0.6-1.6,0.3l-4.3-2.5c-0.6-0.3-0.9-1-0.6-1.5l15.1-26.5
	c0.3-0.5,1-0.6,1.6-0.3l4.3,2.5C54.3,102.1,54.5,102.7,54.3,103.2z"/>
<path class="st1" d="M56.6,127.1l-15.1,26.5c-0.3,0.5-1,0.6-1.6,0.3l-4.3-2.5c-0.6-0.3-0.9-1-0.6-1.5l15.1-26.5
	c0.3-0.5,1-0.6,1.6-0.3l4.3,2.5C56.6,126,56.9,126.7,56.6,127.1z"/>
<path class="st1" d="M81.3,115.6L66.2,142c-0.3,0.5-1,0.6-1.6,0.3l-4.3-2.5c-0.6-0.3-0.9-1-0.6-1.5l15.1-26.5c0.3-0.5,1-0.6,1.6-0.3
	l4.3,2.5C81.4,114.4,81.6,115.1,81.3,115.6z"/>
<g class="st2">
	<path class="st1" d="M131.5,93.1H54.4c-17.5,0-31.7-10.6-31.7-23.7C22.7,60,30.2,51.8,41,48c-0.1-0.7-0.1-1.5-0.1-2.3
		c0-15,16.2-27.1,36.3-27.1c15.2,0,28.1,6.9,33.6,16.8c3.1-2.1,7.2-3.3,11.8-3.3c10,0,18.1,6.1,18.1,13.5c0,2.7-1.1,5.2-2.9,7.3
		c12,2.1,21,10.1,21,19.8C158.7,84,146.5,93.1,131.5,93.1z"/>
</g>
</svg>
