<?xml version="1.0" encoding="utf-8"?>
<!-- Generator: Adobe Illustrator 20.1.0, SVG Export Plug-In . SVG Version: 6.00 Build 0)  -->
<svg version="1.1" id="图层_1" xmlns="http://www.w3.org/2000/svg" xmlns:xlink="http://www.w3.org/1999/xlink" x="0px" y="0px"
	 viewBox="0 0 181.4 181.4" style="enable-background:new 0 0 181.4 181.4;" xml:space="preserve">
<style type="text/css">
	.st0{fill:#5082C3;}
	.st1{fill:#FFFFFF;}
	.st2{enable-background:new    ;}
	.st3{fill:#FFCE3D;}
</style>
<circle id="circle" class="st0" cx="90.7" cy="90.7" r="90.7"/>
<path class="st1" d="M65.7,101.4l-13.6,37.9c-0.2,0.7-1,1.1-1.6,0.9l-4.7-1.7c-0.6-0.2-1-1-0.7-1.7l13.6-37.9c0.2-0.7,1-1.1,1.6-0.9
	l4.7,1.7C65.7,99.9,66,100.7,65.7,101.4z"/>
<path class="st1" d="M125.9,103.7l-13.6,37.9c-0.2,0.7-1,1.1-1.6,0.9l-4.7-1.7c-0.6-0.2-1-1-0.7-1.7l13.6-37.9
	c0.2-0.7,1-1.1,1.6-0.9l4.7,1.7C125.8,102.2,126.1,103,125.9,103.7z"/>
<path class="st1" d="M76.1,122.5l-13.6,37.9c-0.2,0.7-1,1.1-1.6,0.9l-4.7-1.7c-0.6-0.2-1-1-0.7-1.7L69.1,120c0.2-0.7,1-1.1,1.6-0.9
	l4.7,1.7C76,121,76.4,121.8,76.1,122.5z"/>
<path class="st1" d="M136.3,124.8l-13.6,37.9c-0.2,0.7-1,1.1-1.6,0.9l-4.7-1.7c-0.6-0.2-1-1-0.7-1.7l13.6-37.9
	c0.2-0.7,1-1.1,1.6-0.9l4.7,1.7C136.2,123.3,136.5,124.1,136.3,124.8z"/>
<g class="st2">
	<path class="st1" d="M131.5,93.1H54.4c-17.5,0-31.7-10.6-31.7-23.7C22.7,60,30.2,51.8,41,48c-0.1-0.7-0.1-1.5-0.1-2.3
		c0-15,16.2-27.1,36.3-27.1c15.2,0,28.1,6.9,33.6,16.8c3.1-2.1,7.2-3.3,11.8-3.3c10,0,18.1,6.1,18.1,13.5c0,2.7-1.1,5.2-2.9,7.3
		c12,2.1,21,10.1,21,19.8C158.7,84,146.5,93.1,131.5,93.1z"/>
</g>
<g>
	<path class="st3" d="M110.2,100.1l-25.7,47c-0.4,0.6-1,1-1.6,0.9c-0.1,0-0.3-0.1-0.5-0.1c-0.7-0.4-1.1-1.4-0.8-2.2l11.5-33.6
		L78,114.4c-0.1,0-0.3,0-0.4,0c-0.4-0.1-0.8-0.3-1-0.6c-0.4-0.5-0.4-1.1-0.2-1.7L88,77.7c0.3-0.8,1-1.3,1.7-1.2l11.7,1.5
		c0.9,0.1,1.5,1,1.4,2c0,0.3-0.1,0.5-0.3,0.7l-8.7,19l14.7-2.4c0.1,0,0.3,0,0.4,0c0.5,0.1,0.9,0.4,1.1,0.8
		C110.5,98.7,110.5,99.5,110.2,100.1z"/>
</g>
</svg>
