<?xml version="1.0" encoding="utf-8"?>
<!-- Generator: Adobe Illustrator 20.1.0, SVG Export Plug-In . SVG Version: 6.00 Build 0)  -->
<svg version="1.1" id="图层_1" xmlns="http://www.w3.org/2000/svg" xmlns:xlink="http://www.w3.org/1999/xlink" x="0px" y="0px"
	 viewBox="0 0 181.4 181.4" style="enable-background:new 0 0 181.4 181.4;" xml:space="preserve">
<style type="text/css">
	.st0{fill:#5082C3;}
	.st1{fill:#FFFFFF;}
</style>
<circle id="circle" class="st0" cx="90.7" cy="90.7" r="90.7"/>
<path class="st1" d="M146.5,102H34.9c-2,0-3.8-1.7-3.8-3.8v-15c0-2,1.7-3.8,3.8-3.8h111.6c2,0,3.8,1.7,3.8,3.8v15
	C150.2,100.3,148.5,102,146.5,102z"/>
<path class="st1" d="M146.5,65.2H34.9c-2,0-3.8-1.7-3.8-3.8v-15c0-2,1.7-3.8,3.8-3.8h111.6c2,0,3.8,1.7,3.8,3.8v15
	C150.2,63.6,148.5,65.2,146.5,65.2z"/>
<path class="st1" d="M146.5,138.6H34.9c-2,0-3.8-1.7-3.8-3.8v-15c0-2,1.7-3.8,3.8-3.8h111.6c2,0,3.8,1.7,3.8,3.8v15
	C150.2,136.9,148.5,138.6,146.5,138.6z"/>
</svg>
