<?xml version="1.0" encoding="utf-8"?>
<!-- Generator: Adobe Illustrator 20.1.0, SVG Export Plug-In . SVG Version: 6.00 Build 0)  -->
<svg version="1.1" id="图层_1" xmlns="http://www.w3.org/2000/svg" xmlns:xlink="http://www.w3.org/1999/xlink" x="0px" y="0px"
	 viewBox="0 0 181.4 181.4" style="enable-background:new 0 0 181.4 181.4;" xml:space="preserve">
<style type="text/css">
	.st0{fill:#5082C3;}
	.st1{fill:#F5BC26;}
</style>
<circle id="circle" class="st0" cx="90.7" cy="90.7" r="90.7"/>
<path id="sun" class="st1" d="M157,114.3l-23.3,7.7v24.4c0,0.8-0.4,1.6-1,2.1c-0.7,0.5-1.5,0.6-2.3,0.3l-23.3-7.5L92.8,161
	c-0.5,0.6-1.3,1-2.1,1c-0.8,0-1.6-0.4-2.1-1l-14.3-19.8L51,148.8c-0.8,0.3-1.6,0.2-2.3-0.3c-0.6-0.5-1-1.3-1-2.1V122l-23.3-7.7
	c-0.7-0.2-1.4-0.8-1.6-1.6c-0.2-0.8-0.2-1.7,0.3-2.3l14.3-19.8L23.1,70.9c-0.5-0.7-0.6-1.5-0.3-2.3c0.2-0.8,0.9-1.4,1.6-1.6
	l23.3-7.7V35c0-0.8,0.4-1.6,1-2.1c0.7-0.5,1.5-0.6,2.3-0.3l23.3,7.5l14.3-19.8c1-1.3,3.2-1.3,4.1,0l14.3,19.8l23.3-7.5
	c0.8-0.3,1.6-0.2,2.3,0.3c0.6,0.5,1,1.3,1,2.1v24.4L157,67c0.7,0.2,1.4,0.8,1.6,1.6c0.2,0.8,0.2,1.6-0.3,2.3l-14.3,19.8l14.3,19.8
	c0.5,0.6,0.6,1.5,0.3,2.3C158.4,113.5,157.7,114.1,157,114.3z M90.7,54.7c-19.9,0-36,16.1-36,36s16.1,36,36,36s36-16.1,36-36
	S110.6,54.7,90.7,54.7z"/>
</svg>
