<?xml version="1.0" encoding="utf-8"?>
<!-- Generator: Adobe Illustrator 20.1.0, SVG Export Plug-In . SVG Version: 6.00 Build 0)  -->
<svg version="1.1" id="图层_1" xmlns="http://www.w3.org/2000/svg" xmlns:xlink="http://www.w3.org/1999/xlink" x="0px" y="0px"
	 viewBox="0 0 181.4 181.4" style="enable-background:new 0 0 181.4 181.4;" xml:space="preserve">
<style type="text/css">
	.st0{fill:#5082C3;}
	.st1{fill:#F5BC26;}
	.st2{fill:#FFFFFF;}
</style>
<circle id="circle" class="st0" cx="90.7" cy="90.7" r="90.7"/>
<path id="sun" class="st1" d="M159.9,87.5l-17.8,5.8V112c0,0.6-0.3,1.2-0.8,1.6c-0.6,0.4-1.2,0.5-1.8,0.2l-17.8-5.7l-11,15.1
	c-0.4,0.5-1,0.8-1.6,0.8c-0.6,0-1.2-0.3-1.6-0.8l-11-15.1l-17.8,5.7c-0.6,0.2-1.2,0.1-1.8-0.2c-0.5-0.4-0.8-1-0.8-1.6V93.3
	l-17.8-5.8c-0.5-0.2-1-0.6-1.2-1.2c-0.2-0.6-0.1-1.3,0.2-1.8l11-15.1l-11-15.1c-0.4-0.6-0.4-1.2-0.2-1.8c0.2-0.6,0.7-1,1.2-1.2
	l17.8-5.8V26.9c0-0.6,0.3-1.2,0.8-1.6c0.6-0.4,1.2-0.5,1.8-0.2l17.8,5.7l11-15.1c0.7-1,2.4-1,3.2,0l11,15.1l17.8-5.7
	c0.6-0.2,1.2-0.1,1.8,0.2c0.5,0.4,0.8,1,0.8,1.6v18.6l17.8,5.8c0.5,0.2,1,0.6,1.2,1.2c0.2,0.6,0.1,1.2-0.2,1.8l-11,15.1l11,15.1
	c0.4,0.5,0.4,1.2,0.2,1.8C160.9,86.9,160.4,87.3,159.9,87.5z M109.2,34.3c-19.4,0-35.1,15.7-35.1,35.1s15.7,35.1,35.1,35.1
	s35.1-15.7,35.1-35.1S128.6,34.3,109.2,34.3z"/>
<path id="cloud" class="st2" d="M116.9,148.1H43.2c-16.7,0-30.4-13.6-30.4-30.4c0-12.1,7.2-22.6,17.5-27.4c-0.1-0.9-0.1-2-0.1-2.9
	c0-19.2,15.5-34.7,34.7-34.7c14.5,0,26.9,8.9,32.1,21.6c3-2.6,6.9-4.2,11.2-4.2c9.6,0,17.4,7.8,17.4,17.4c0,3.5-1,6.6-2.8,9.4
	c11.5,2.7,20.1,13,20.1,25.3C143,136.4,131.3,148.1,116.9,148.1z"/>
</svg>
