<?xml version="1.0" encoding="utf-8"?>
<!-- Generator: Adobe Illustrator 20.1.0, SVG Export Plug-In . SVG Version: 6.00 Build 0)  -->
<svg version="1.1" id="图层_1" xmlns="http://www.w3.org/2000/svg" xmlns:xlink="http://www.w3.org/1999/xlink" x="0px" y="0px"
	 viewBox="0 0 181.4 181.4" style="enable-background:new 0 0 181.4 181.4;" xml:space="preserve">
<style type="text/css">
	.st0{fill:#5082C3;}
	.st1{fill:#FFCE3D;}
</style>
<circle id="circle" class="st0" cx="90.7" cy="90.7" r="90.7"/>
<path id="flash" class="st1" d="M127,62.1l-44.2,94.6c-0.7,1.2-2,2-3.4,2c-0.3,0-0.7-0.1-1.1-0.2c-1.8-0.6-2.9-2.3-2.5-4l16.1-66.1
	l-33.2,8.3c-0.3,0.1-0.7,0.1-1,0.1c-0.9,0-1.9-0.3-2.5-0.9c-1-0.8-1.3-2-1.1-3.2l16.4-67.5c0.4-1.6,1.9-2.6,3.6-2.6H101
	c2,0,3.7,1.6,3.7,3.4c0,0.5-0.2,1-0.4,1.5l-14,37.9l32.4-8c0.3-0.1,0.7-0.2,1-0.2c1.1,0,2,0.5,2.8,1.2
	C127.3,59.5,127.6,60.9,127,62.1z"/>
</svg>
