<?xml version="1.0" encoding="utf-8"?>
<!-- Generator: Adobe Illustrator 20.1.0, SVG Export Plug-In . SVG Version: 6.00 Build 0)  -->
<svg version="1.1" id="图层_1" xmlns="http://www.w3.org/2000/svg" xmlns:xlink="http://www.w3.org/1999/xlink" x="0px" y="0px"
	 viewBox="0 0 181.4 181.4" style="enable-background:new 0 0 181.4 181.4;" xml:space="preserve">
<style type="text/css">
	.st0{fill:#5082C3;}
	.st1{enable-background:new    ;}
	.st2{fill:#FFFFFF;}
</style>
<circle id="circle" class="st0" cx="90.7" cy="90.7" r="90.7"/>
<g class="st1">
	<path class="st2" d="M131.5,93.1H54.4c-17.5,0-31.7-10.6-31.7-23.7C22.7,60,30.2,51.8,41,48c-0.1-0.7-0.1-1.5-0.1-2.3
		c0-15,16.2-27.1,36.3-27.1c15.2,0,28.1,6.9,33.6,16.8c3.1-2.1,7.2-3.3,11.8-3.3c10,0,18.1,6.1,18.1,13.5c0,2.7-1.1,5.2-2.9,7.3
		c12,2.1,21,10.1,21,19.8C158.7,84,146.5,93.1,131.5,93.1z"/>
</g>
<g class="st1">
	<path class="st2" d="M102,122.6l3.7,2.1c0.6,0.3,0.8,1.1,0.5,1.7s-1.1,0.8-1.7,0.5l-3.7-2.1l1.1,3.2c0.6,1.6-1.9,2.4-2.4,0.8l-2-6
		l-5.4-3.1v6.2l4.1,4.7c1.1,1.3-0.8,2.9-1.9,1.7l-2.2-2.5v4.3c0,0.7-0.6,1.3-1.3,1.3s-1.3-0.6-1.3-1.3v-4.3l-2.2,2.5
		c-1.1,1.3-3-0.4-1.9-1.7l4.1-4.7v-6.2l-5.4,3.1l-2,6c-0.5,1.6-3,0.8-2.4-0.8l1.1-3.2l-3.7,2.1c-0.6,0.4-1.4,0.1-1.7-0.5
		s-0.1-1.4,0.5-1.7l3.7-2.1l-3.3-0.7c-1.7-0.3-1.2-2.8,0.5-2.5l6.2,1.2l5.4-3.1l-5.4-3.1l-6.2,1.2c-0.1,0-0.2,0-0.3,0
		c-1.5,0-1.7-2.2-0.2-2.5l3.3-0.7l-3.7-2.1c-0.6-0.3-0.8-1.1-0.5-1.7c0.4-0.6,1.1-0.8,1.7-0.5l3.7,2.1l-1.1-3.2
		c-0.6-1.6,1.9-2.4,2.4-0.8l2,6l5.4,3.1v-6.2l-4.1-4.7c-1.1-1.3,0.8-2.9,1.9-1.7l2.2,2.5V101c0-0.7,0.6-1.3,1.3-1.3s1.3,0.6,1.3,1.3
		v4.3l2.2-2.5c1.1-1.3,3,0.4,1.9,1.7l-4.1,4.7v6.2l5.4-3.1l2-6c0.5-1.6,3-0.8,2.4,0.8l-1.1,3.2l3.7-2.1c0.6-0.4,1.4-0.1,1.7,0.5
		s0.1,1.4-0.5,1.7l-3.7,2.1l3.3,0.7c1.5,0.3,1.3,2.5-0.2,2.5c-0.1,0-0.2,0-0.3,0l-6.2-1.2l-5.4,3.1l5.4,3.1l6.2-1.2
		c1.7-0.3,2.2,2.2,0.5,2.5L102,122.6z"/>
</g>
<g class="st1">
	<path class="st2" d="M139.7,140.9l3.7,2.1c0.6,0.3,0.8,1.1,0.5,1.7s-1.1,0.8-1.7,0.5l-3.7-2.1l1.1,3.2c0.6,1.6-1.9,2.4-2.4,0.8
		l-2-6l-5.4-3.1v6.2l4.1,4.7c1.1,1.3-0.8,2.9-1.9,1.7l-2.2-2.5v4.3c0,0.7-0.6,1.3-1.3,1.3c-0.7,0-1.3-0.6-1.3-1.3v-4.3l-2.2,2.5
		c-1.1,1.3-3-0.4-1.9-1.7l4.1-4.7v-6.2l-5.4,3.1l-2,6c-0.5,1.6-3,0.8-2.4-0.8l1.1-3.2l-3.7,2.1c-0.6,0.4-1.4,0.1-1.7-0.5
		s-0.1-1.4,0.5-1.7l3.7-2.1l-3.3-0.7c-1.7-0.3-1.2-2.8,0.5-2.5l6.2,1.2l5.4-3.1l-5.4-3.1l-6.2,1.2c-0.1,0-0.2,0-0.3,0
		c-1.5,0-1.7-2.2-0.2-2.5l3.3-0.7l-3.7-2.1c-0.6-0.3-0.8-1.1-0.5-1.7c0.4-0.6,1.1-0.8,1.7-0.5l3.7,2.1l-1.1-3.2
		c-0.6-1.6,1.9-2.4,2.4-0.8l2,6l5.4,3.1v-6.2l-4.1-4.7c-1.1-1.3,0.8-2.9,1.9-1.7l2.2,2.5v-4.3c0-0.7,0.6-1.3,1.3-1.3
		c0.7,0,1.3,0.6,1.3,1.3v4.3l2.2-2.5c1.1-1.3,3,0.4,1.9,1.7l-4.1,4.7v6.2l5.4-3.1l2-6c0.5-1.6,3-0.8,2.4,0.8l-1.1,3.2l3.7-2.1
		c0.6-0.4,1.4-0.1,1.7,0.5s0.1,1.4-0.5,1.7l-3.7,2.1l3.3,0.7c1.5,0.3,1.3,2.5-0.2,2.5c-0.1,0-0.2,0-0.3,0l-6.2-1.2l-5.4,3.1l5.4,3.1
		l6.2-1.2c1.7-0.3,2.2,2.2,0.5,2.5L139.7,140.9z"/>
</g>
<g class="st1">
	<path class="st2" d="M64.3,140.9L68,143c0.6,0.3,0.8,1.1,0.5,1.7s-1.1,0.8-1.7,0.5l-3.7-2.1l1.1,3.2c0.6,1.6-1.9,2.4-2.4,0.8l-2-6
		l-5.4-3.1v6.2l4.1,4.7c1.1,1.3-0.8,2.9-1.9,1.7l-2.2-2.5v4.3c0,0.7-0.6,1.3-1.3,1.3s-1.3-0.6-1.3-1.3v-4.3l-2.2,2.5
		c-1.1,1.3-3-0.4-1.9-1.7l4.1-4.7v-6.2l-5.4,3.1l-2,6c-0.5,1.6-3,0.8-2.4-0.8l1.1-3.2l-3.7,2.1c-0.6,0.4-1.4,0.1-1.7-0.5
		s-0.1-1.4,0.5-1.7l3.7-2.1l-3.3-0.7c-1.7-0.3-1.2-2.8,0.5-2.5l6.2,1.2l5.4-3.1l-5.4-3.1l-6.2,1.2c-0.1,0-0.2,0-0.3,0
		c-1.5,0-1.7-2.2-0.2-2.5l3.3-0.7l-3.7-2.1c-0.6-0.3-0.8-1.1-0.5-1.7c0.4-0.6,1.1-0.8,1.7-0.5l3.7,2.1l-1.1-3.2
		c-0.6-1.6,1.9-2.4,2.4-0.8l2,6l5.4,3.1v-6.2l-4.1-4.7c-1.1-1.3,0.8-2.9,1.9-1.7l2.2,2.5v-4.3c0-0.7,0.6-1.3,1.3-1.3
		s1.3,0.6,1.3,1.3v4.3l2.2-2.5c1.1-1.3,3,0.4,1.9,1.7l-4.1,4.7v6.2l5.4-3.1l2-6c0.5-1.6,3-0.8,2.4,0.8l-1.1,3.2l3.7-2.1
		c0.6-0.4,1.4-0.1,1.7,0.5s0.1,1.4-0.5,1.7l-3.7,2.1l3.3,0.7c1.5,0.3,1.3,2.5-0.2,2.5c-0.1,0-0.2,0-0.3,0l-6.2-1.2l-5.4,3.1L61,139
		l6.2-1.2c1.7-0.3,2.2,2.2,0.5,2.5L64.3,140.9z"/>
</g>
</svg>
